<svg height="40" width="60" xmlns="http://www.w3.org/2000/svg" style="overflow:hidden;position:relative;top:-.796875px" viewBox="133.87169739 88.79699221 327.074009 192.53457039" preserveAspectRatio="xMinYMin"><defs style="-webkit-tap-highlight-color:transparent"><linearGradient id="a" x1="1" y1="1" x2="0" y2="0" style="-webkit-tap-highlight-color:transparent"><stop offset="50%" stop-color="#0042ff" style="-webkit-tap-highlight-color:transparent"/><stop offset="0%" stop-color="red" style="-webkit-tap-highlight-color:transparent"/></linearGradient></defs><path fill="url(#a)" d="M105.502 54.502 24.73 22.194q-1.297 1.24-2.537 2.537l32.31 80.773 80.765 32.306q1.299-1.243 2.54-2.541ZM63.01 97.01l34-34 21.14 55.005Z" transform="matrix(.4502 -.7794 .7794 .4502 224.0975 276.3133)" style="-webkit-tap-highlight-color:transparent;opacity:1;fill-opacity:1"/><path fill="#ff7500" d="M-134.18 0v-37.5h7.6q3.25 0 5.57 2.31 2.32 2.31 2.32 5.56 0 3.36-3.37 4.15 2.44.35 5.54 3.47 3.11 3.12 3.11 8.63 0 5.5-3.87 9.51-3.63 3.78-7.29 3.82V0h-9.61m4.85-4.88h4.76v-.07q1.5-.09 3.73-2.41 2.46-2.53 2.46-6.02 0-3.45-2.45-5.9t-5.89-2.45h-2.61v16.85m0-21.84h3.17q1.08-.09 1.85-.82.84-.77.84-2.09 0-1.31-.88-2.16-.87-.86-2.23-.86h-2.75v5.93ZM-108.65 0v-24.12h4.85v8.7h11.53v.09q1.94.1 4.26 2.13 2.49 2.18 2.49 5.49v.02q0 3.28-2.49 5.46Q-90.33 0-92.27 0h-16.38m4.85-4.88h8.55v.05q3-.14 4.03-.98.82-.68.82-1.88 0-1.24-.82-1.94-1.03-.82-4.03-.96v.04h-8.55v5.67M-84.21 0v-24.12h4.85V0h-4.85Zm9.89 0v-24.12h20.93V0h-4.83v-19.24h-11.25V0h-4.85Zm25.71 0v-24.12h4.85v15.05l11.39-15.05h4.25V0h-4.83v-15.26L-43.76-1.01V0h-4.85Zm25.53 0v-24.12h10.96q1.97 0 4.12 1.73 2.14 1.72 2.14 5.4v.02q0 3.47-3.79 4.9 3.79 1.38 3.79 4.83v.02q0 3.7-2.14 5.46Q-10.15 0-12.12 0h-10.96m4.85-4.88h3.11v.05q2.93-.14 3.66-.87.73-.72.73-1.52t-.73-1.52q-.73-.73-3.66-.87v.05h-3.11v4.68m0-9.75h3.11v.05q2.93-.14 3.66-.87.73-.72.73-1.54 0-.8-.73-1.51-.73-.72-3.66-.86v.05h-3.11v4.68Zm17.15 1.93q0-5.53 3.91-9.44 3.9-3.9 9.43-3.9 4.64 0 8.16 3.61v-1.69h4.87V.02h-4.87V-3Q16.9.63 12.26.63q-5.53 0-9.43-3.9-3.91-3.9-3.91-9.43m4.97 0q0 3.44 2.45 5.89 2.45 2.45 5.92 2.45 3.45 0 5.91-2.44 1.82-1.85 2.25-4.12v-3.56q-.43-2.28-2.25-4.13-2.46-2.44-5.91-2.44-3.47 0-5.92 2.44-2.45 2.44-2.45 5.91ZM31.22 0v-24.12h4.85v15.05l11.39-15.05h4.25V0h-4.83v-15.26L36.07-1.01V0h-4.85m3.75-33.12h4.43q.26 1.46.61 1.81.61.61 1.48.61.84 0 1.45-.64.35-.32.59-1.78h4.45q-.52 2.89-1.88 4.27-1.89 1.92-4.61 1.92-2.75 0-4.64-1.92-1.48-1.48-1.88-4.27Zm20.67 17.09q.4-4.34 2.93-6.28 2.65-1.99 6.33-1.99 3.66 0 6.39 2.07 2.73 2.07 2.73 5.19 0 3.82-4.13 4.9 4.13 1.05 4.13 4.87 0 3.12-2.73 5.21Q68.56.02 64.9.02q-3.68 0-6.41-2.08-2.73-2.09-2.73-5.21v-1.66h4.99v1.66q0 1.06 1.15 1.93 1.15.86 3 .86 1.83 0 2.98-.86 1.15-.87 1.15-1.93 0-1.03-1.04-1.82-.75-.54-1.5-1.22h-5.46v-3.89h6.05q.38-.64.89-1.01 1.06-.8 1.06-1.83t-1.15-1.9q-1.15-.86-2.98-.86-1.85 0-3.09.91-.94.73-1.22 2.86h-4.95ZM78-12.73q0-5.53 3.92-9.44 3.91-3.92 9.42-3.92 4.73 0 8.29 2.86.59.5 1.15 1.06.24.23 1.34 1.47l-2.44 2.47L86.91-5.46q1.22 1.08 4.43 1.08 3.47 0 5.93-2.44.3-.33 1.24-1.45l4.85 1.73q-1.78 2.46-2.58 3.26Q96.87.63 91.34.63q-5.51 0-9.42-3.91Q78-7.2 78-12.73m4.99 0q0 2.84.64 3.68l11.39-11.41q-.82-.63-3.68-.63-3.45 0-5.9 2.45-2.45 2.44-2.45 5.91Zm26 20.84v-32.23h4.85v2.18q3.51-4.12 8.18-4.12 5.53 0 9.43 3.9 3.9 3.9 3.9 9.43 0 5.53-3.9 9.45-3.9 3.91-9.43 3.91-4.67 0-8.18-3.63V8.11h-4.85m4.85-18.94q.44 2.23 2.27 4.03 2.44 2.44 5.91 2.44t5.92-2.45q2.44-2.45 2.44-5.92 0-3.44-2.44-5.9-2.45-2.46-5.92-2.46-3.47 0-5.91 2.46-1.83 1.8-2.27 4.03v3.77Z" transform="matrix(1.1205 -.3002 .3002 1.1205 302.261 182.7759)" style="-webkit-tap-highlight-color:transparent"/></svg>